<svg xmlns="http://www.w3.org/2000/svg" width="182.828" height="192.308" viewBox="0 0 182.828 192.308"><defs><style>.a{fill:#29abe2;}.b{fill:#fff;}.c{fill:#d6b71d;}.d{fill:#f9de58;}.e{fill:#3098c4;}.f{fill:#dbdbdb;}.g{fill:#fc7a51;}</style></defs><g transform="translate(-10.48)"><path class="a" d="M103.741,169.447A45.313,45.313,0,0,1,29.8,204.579L10.48,208.348l7.6-18.237a45.3,45.3,0,0,1,38.578-65.946c.585-.024,1.175-.033,1.765-.033a45.3,45.3,0,0,1,45.319,45.315" transform="translate(0 -67.987)"/><path class="b" d="M90.363,199.613a18.4,18.4,0,0,1,1.28-7.042,11.682,11.682,0,0,1,5.281-5.442q1.2-.72,2.961-1.641a24.067,24.067,0,0,0,3.441-2.2,12.611,12.611,0,0,0,2.841-3,6.922,6.922,0,0,0,1.16-3.961,6.547,6.547,0,0,0-.64-2.961,6.776,6.776,0,0,0-1.68-2.16,6.988,6.988,0,0,0-2.441-1.321,9.451,9.451,0,0,0-2.84-.44,8.252,8.252,0,0,0-3.2.6,10.931,10.931,0,0,0-2.6,1.521,12.787,12.787,0,0,0-2.081,2.081,22.921,22.921,0,0,0-1.56,2.2l-6.962-4.8a15.52,15.52,0,0,1,2.761-4.4A16.9,16.9,0,0,1,90,163.4a18.36,18.36,0,0,1,4.761-2,20.509,20.509,0,0,1,5.281-.68,20.987,20.987,0,0,1,6,.88,15.246,15.246,0,0,1,5.321,2.8,14.533,14.533,0,0,1,3.841,4.921,16.043,16.043,0,0,1,1.48,7.162,15.468,15.468,0,0,1-.6,4.521,12.6,12.6,0,0,1-1.721,3.561,15.014,15.014,0,0,1-2.641,2.881,30.079,30.079,0,0,1-3.441,2.48q-1.6.961-3.2,1.84a19.256,19.256,0,0,0-2.921,1.961,9.544,9.544,0,0,0-2.161,2.48,6.5,6.5,0,0,0-.84,3.4h-8.8m.161,18.644V207.214h8.882v11.042H90.523" transform="translate(-39.894 -88.028)"/><path class="c" d="M142.7,350.283l4.93,10.408,40.395-28.616-9.575-7.134Z" transform="translate(-72.415 -177.971)"/><path class="c" d="M339.8,153.178l-25.341,35.746,7.133,9.578,28.616-40.395Z" transform="translate(-166.49 -83.896)"/><path class="d" d="M153.6,272.586l23.284,9.587a148.514,148.514,0,0,0,94.813-94.813L262.1,164.077l-28.616,40.395,9.523,2.964a122.475,122.475,0,0,1-46.057,46.057l-2.964-9.524Z" transform="translate(-78.385 -89.865)"/><path class="e" d="M114.337,124.131c-.59,0-1.18.009-1.765.033a45.036,45.036,0,0,0,5.434,16.608,21.178,21.178,0,0,1,4.062.79,15.247,15.247,0,0,1,5.321,2.8,14.533,14.533,0,0,1,3.841,4.921,16.043,16.043,0,0,1,1.48,7.162v.093a45.129,45.129,0,0,0,24.848,7.412c.59,0,1.176-.009,1.761-.033a45.315,45.315,0,0,0-44.983-39.786" transform="translate(-55.916 -67.987)"/><path class="f" d="M124.586,160.923a45.548,45.548,0,0,0,14.7,15.767V176.6a16.042,16.042,0,0,0-1.48-7.162,14.519,14.519,0,0,0-3.841-4.921,15.236,15.236,0,0,0-5.321-2.8,21.086,21.086,0,0,0-4.062-.791" transform="translate(-62.496 -88.137)"/><path class="g" d="M127.45,45.315a45.313,45.313,0,0,0,73.939,35.133l19.322,3.768-7.6-18.238A45.322,45.322,0,1,0,127.45,45.315Z" transform="translate(-64.064)"/><path class="b" d="M178.988,66.357a10.552,10.552,0,1,1,10.553-10.552A10.564,10.564,0,0,1,178.988,66.357Zm0-16.613a6.061,6.061,0,1,0,6.061,6.061A6.068,6.068,0,0,0,178.988,49.744Z" transform="translate(-86.512 -24.785)"/><path class="b" d="M250.742,129.569a10.552,10.552,0,1,1,10.553-10.552A10.565,10.565,0,0,1,250.742,129.569Zm0-16.613a6.061,6.061,0,1,0,6.061,6.061A6.068,6.068,0,0,0,250.742,112.956Z" transform="translate(-125.812 -59.406)"/><rect class="b" width="4.491" height="53.573" transform="translate(105.694 72.023) rotate(-168.773)"/></g></svg>